catching_a_ball coordinate motion generated from LLM joint_angles
version=1
nRows=14
nColumns=29
inDegrees=yes
endheader
time	elbow_flexion	pro_sup	rotaxis_auxprfem_r3	deviation	auxprrud_auxdrfem_r3	auxdrfem_auxdrrud_r1	MCP2_lateral	MCP2_flex	PIP_flex	DIP_flex	MCP2M_lateral	MCP2M_flex	MPIP_flex	MDIP_flex	RCP2M_lateral	RCP2M_flex	RPIP_flex	RDIP_flex	LCP2M_lateral	LCP2M_flex	LPIP_flex	LDIP_flex	thumb_abd	thumb_flex	TCP2M_lateral	TCP2M_flex	TCP2M2_flex	flexion
0.666667	0.000000	0.000000	0.000000	8.660254	0.000000	0.000000	0.000000	51.961524	51.961524	51.961524	0.000000	51.961524	51.961524	51.961524	0.000000	38.971143	38.971143	38.971143	0.000000	38.971143	38.971143	38.971143	17.320508	38.971143	0.000000	0.000000	0.000000	17.320508
0.673333	0.000000	0.000000	0.000000	8.553643	0.000000	0.000000	0.000000	51.321856	51.321856	51.321856	0.000000	51.321856	51.321856	51.321856	0.000000	38.491392	38.491392	38.491392	0.000000	38.491392	38.491392	38.491392	17.107285	38.491392	0.000000	0.000000	0.000000	17.107285
0.680000	0.000000	0.000000	0.000000	8.443279	0.000000	0.000000	0.000000	50.659676	50.659676	50.659676	0.000000	50.659676	50.659676	50.659676	0.000000	37.994757	37.994757	37.994757	0.000000	37.994757	37.994757	37.994757	16.886559	37.994757	0.000000	0.000000	0.000000	16.886559
0.686667	0.000000	0.000000	0.000000	8.329212	0.000000	0.000000	0.000000	49.975274	49.975274	49.975274	0.000000	49.975274	49.975274	49.975274	0.000000	37.481456	37.481456	37.481456	0.000000	37.481456	37.481456	37.481456	16.658425	37.481456	0.000000	0.000000	0.000000	16.658425
0.693333	0.000000	0.000000	0.000000	8.211492	0.000000	0.000000	0.000000	49.268953	49.268953	49.268953	0.000000	49.268953	49.268953	49.268953	0.000000	36.951714	36.951714	36.951714	0.000000	36.951714	36.951714	36.951714	16.422984	36.951714	0.000000	0.000000	0.000000	16.422984
0.700000	0.000000	0.000000	0.000000	8.090170	0.000000	0.000000	0.000000	48.541020	48.541020	48.541020	0.000000	48.541020	48.541020	48.541020	0.000000	36.405765	36.405765	36.405765	0.000000	36.405765	36.405765	36.405765	16.180340	36.405765	0.000000	0.000000	0.000000	16.180340
0.706667	0.000000	0.000000	0.000000	7.965299	0.000000	0.000000	0.000000	47.791795	47.791795	47.791795	0.000000	47.791795	47.791795	47.791795	0.000000	35.843846	35.843846	35.843846	0.000000	35.843846	35.843846	35.843846	15.930598	35.843846	0.000000	0.000000	0.000000	15.930598
0.713333	0.000000	0.000000	0.000000	7.836935	0.000000	0.000000	0.000000	47.021607	47.021607	47.021607	0.000000	47.021607	47.021607	47.021607	0.000000	35.266206	35.266206	35.266206	0.000000	35.266206	35.266206	35.266206	15.673869	35.266206	0.000000	0.000000	0.000000	15.673869
0.720000	0.000000	0.000000	0.000000	7.705132	0.000000	0.000000	0.000000	46.230795	46.230795	46.230795	0.000000	46.230795	46.230795	46.230795	0.000000	34.673096	34.673096	34.673096	0.000000	34.673096	34.673096	34.673096	15.410265	34.673096	0.000000	0.000000	0.000000	15.410265
0.726667	0.000000	0.000000	0.000000	7.569951	0.000000	0.000000	0.000000	45.419703	45.419703	45.419703	0.000000	45.419703	45.419703	45.419703	0.000000	34.064778	34.064778	34.064778	0.000000	34.064778	34.064778	34.064778	15.139901	34.064778	0.000000	0.000000	0.000000	15.139901
0.733333	0.000000	0.000000	0.000000	7.431448	0.000000	0.000000	0.000000	44.588690	44.588690	44.588690	0.000000	44.588690	44.588690	44.588690	0.000000	33.441517	33.441517	33.441517	0.000000	33.441517	33.441517	33.441517	14.862897	33.441517	0.000000	0.000000	0.000000	14.862897
0.740000	0.000000	0.000000	0.000000	7.289686	0.000000	0.000000	0.000000	43.738118	43.738118	43.738118	0.000000	43.738118	43.738118	43.738118	0.000000	32.803588	32.803588	32.803588	0.000000	32.803588	32.803588	32.803588	14.579373	32.803588	0.000000	0.000000	0.000000	14.579373
0.746667	0.000000	0.000000	0.000000	7.144727	0.000000	0.000000	0.000000	42.868361	42.868361	42.868361	0.000000	42.868361	42.868361	42.868361	0.000000	32.151271	32.151271	32.151271	0.000000	32.151271	32.151271	32.151271	14.289454	32.151271	0.000000	0.000000	0.000000	14.289454
0.753333	0.000000	0.000000	0.000000	6.996633	0.000000	0.000000	0.000000	41.979800	41.979800	41.979800	0.000000	41.979800	41.979800	41.979800	0.000000	31.484850	31.484850	31.484850	0.000000	31.484850	31.484850	31.484850	13.993267	31.484850	0.000000	0.000000	0.000000	13.993267
